# xmcd
#
# Track frame offsets: 
#        150
#        13460
#        27108
#        38806
#        61187
#        76846
#        90557
#        102596
#        117200
#        129267
#        141760
#        154316
#        166888
#        181044
#        201652
#        217087
#        241697
#        255529
#        268354
#        288652
#        306269
#        317721
#
# Disc length: 4376 seconds
#
# Revision: 0
# Processed by: cddbd v1.5.2PL0 Copyright (c) Steve Scherf et al.
# Submitted via: ExactAudioCopy v1.0b3
#
DISCID=3d111616
DTITLE=Various Artist - The Best Blues Album in the World... Ever
DYEAR=2000
DGENRE=Blues
TTITLE0=Muddy Waters - Mannish Boy
TTITLE1=Koko Taylor - Wang Dang Doodle
TTITLE2=Little Walter - My Babe
TTITLE3=Willie Dixon - Spoonful
TTITLE4=Sonny Boy Williamson II - Nine Below Zero
TTITLE5=Mississippi Fred McDowell - Kokome Me Baby
TTITLE6=Robert Johnson - Cross Road Blues
TTITLE7=Sonny Terry and Brownie McGhee - Baby Please Don't Go
TTITLE8=Lightnin' Hopkins - Shotgun
TTITLE9=Elmore James - Dust My Broom
TTITLE10=Big Joe Williams - Oh Baby
TTITLE11=Albert King - Born Under a Bad Sign
TTITLE12=Howlin' Wolf - Smokestack Lightnin'
TTITLE13=John Lee Hooker - Boogie at Russian Hill
TTITLE14=Albert Collins - Frosty
TTITLE15=B. B. King - The Thrill is Gone
TTITLE16=Slim Harpo - I'm a King Bee
TTITLE17=Jimmy Reed - Baby What You Want Me to Do
TTITLE18=Buddy Guy - Damn Right, I've Got the Blues
TTITLE19=Junior Wells - Good Morning Little Schoolgirl
TTITLE20=George 'Harmonica' Smith - Key to the Highway
TTITLE21=Memphis Slim - How Long
EXTD=
EXTT0=
EXTT1=
EXTT2=
EXTT3=
EXTT4=
EXTT5=
EXTT6=
EXTT7=
EXTT8=
EXTT9=
EXTT10=
EXTT11=
EXTT12=
EXTT13=
EXTT14=
EXTT15=
EXTT16=
EXTT17=
EXTT18=
EXTT19=
EXTT20=
EXTT21=
PLAYORDER=
